<svg width="12" height="12" viewBox="0 0 12 12" fill="none" xmlns="http://www.w3.org/2000/svg">
<path d="M10.5 6.00001C10.5001 7.18308 10.0343 8.3186 9.20343 9.1608C8.37255 10.003 7.24343 10.4841 6.06047 10.5H6C4.85074 10.5029 3.74451 10.0631 2.91094 9.27188C2.87514 9.23802 2.84637 9.19745 2.82625 9.15247C2.80614 9.10749 2.79508 9.05899 2.79371 9.00974C2.79234 8.96049 2.80068 8.91145 2.81826 8.86543C2.83584 8.8194 2.86232 8.77729 2.89617 8.74149C2.93003 8.70569 2.9706 8.67692 3.01558 8.6568C3.06056 8.63669 3.10906 8.62563 3.15831 8.62426C3.20756 8.62289 3.2566 8.63123 3.30263 8.64881C3.34865 8.66639 3.39077 8.69287 3.42656 8.72672C3.96272 9.23236 4.63598 9.56881 5.36223 9.69403C6.08849 9.81926 6.83555 9.72771 7.51008 9.43083C8.18461 9.13395 8.75671 8.64489 9.15491 8.02476C9.55311 7.40462 9.75975 6.68091 9.74903 5.94401C9.73831 5.20711 9.5107 4.48971 9.09462 3.88143C8.67855 3.27314 8.09246 2.80093 7.40958 2.5238C6.7267 2.24667 5.9773 2.1769 5.25499 2.3232C4.53268 2.4695 3.8695 2.82539 3.34828 3.34641C3.34445 3.35055 3.34038 3.35447 3.33609 3.35813L2.09016 4.50001L3.375 4.50001C3.47446 4.50001 3.56984 4.53951 3.64016 4.60984C3.71049 4.68017 3.75 4.77555 3.75 4.87501C3.75 4.97446 3.71049 5.06984 3.64016 5.14017C3.56984 5.2105 3.47446 5.25001 3.375 5.25001L1.125 5.25001C1.02554 5.25001 0.930161 5.2105 0.859835 5.14017C0.789509 5.06984 0.75 4.97446 0.75 4.87501L0.75 2.62501C0.75 2.52555 0.789509 2.43017 0.859835 2.35984C0.930161 2.28951 1.02554 2.25001 1.125 2.25001C1.22446 2.25001 1.31984 2.28951 1.39017 2.35984C1.46049 2.43017 1.5 2.52555 1.5 2.62501L1.5 4.02188L2.82422 2.81251C3.45421 2.18496 4.256 1.75813 5.12837 1.5859C6.00075 1.41366 6.90459 1.50374 7.72581 1.84477C8.54703 2.18579 9.24881 2.76247 9.74255 3.50201C10.2363 4.24155 10.4999 5.11079 10.5 6.00001Z" fill="#DEE1E6"/>
</svg>
