<svg width="25" height="25" viewBox="0 0 25 25" fill="none" xmlns="http://www.w3.org/2000/svg">
<path d="M5.51897 7.27427C6.46575 7.27427 7.23326 6.50676 7.23326 5.55999C7.23326 4.61321 6.46575 3.8457 5.51897 3.8457C4.5722 3.8457 3.80469 4.61321 3.80469 5.55999C3.80469 6.50676 4.5722 7.27427 5.51897 7.27427Z" stroke="#DEE1E6" stroke-width="2.05714" stroke-miterlimit="10" stroke-linecap="square"/>
<path d="M5.51897 14.1315C6.46575 14.1315 7.23326 13.3639 7.23326 12.4172C7.23326 11.4704 6.46575 10.7029 5.51897 10.7029C4.5722 10.7029 3.80469 11.4704 3.80469 12.4172C3.80469 13.3639 4.5722 14.1315 5.51897 14.1315Z" stroke="#DEE1E6" stroke-width="2.05714" stroke-miterlimit="10" stroke-linecap="square"/>
<path d="M5.51897 20.9886C6.46575 20.9886 7.23326 20.2211 7.23326 19.2743C7.23326 18.3276 6.46575 17.5601 5.51897 17.5601C4.5722 17.5601 3.80469 18.3276 3.80469 19.2743C3.80469 20.2211 4.5722 20.9886 5.51897 20.9886Z" stroke="#DEE1E6" stroke-width="2.05714" stroke-miterlimit="10" stroke-linecap="square"/>
<path d="M10.6602 5.56006L20.9459 5.56006" stroke="#DEE1E6" stroke-width="2.05714" stroke-miterlimit="10" stroke-linecap="square"/>
<path d="M10.6602 12.4172L20.9459 12.4172" stroke="#DEE1E6" stroke-width="2.05714" stroke-miterlimit="10" stroke-linecap="square"/>
<path d="M10.6602 19.2744L20.9459 19.2744" stroke="#DEE1E6" stroke-width="2.05714" stroke-miterlimit="10" stroke-linecap="square"/>
</svg>
