<svg width="24" height="25" viewBox="0 0 24 25" fill="none" xmlns="http://www.w3.org/2000/svg">
<path d="M16.7151 12.7999C17.8986 12.7999 18.858 11.8405 18.858 10.657C18.858 9.47355 17.8986 8.51416 16.7151 8.51416C15.5317 8.51416 14.5723 9.47355 14.5723 10.657C14.5723 11.8405 15.5317 12.7999 16.7151 12.7999Z" stroke="#DEE1E6" stroke-width="2.05714" stroke-miterlimit="10" stroke-linecap="square"/>
<path d="M9.8577 7.65681C11.0412 7.65681 12.0006 6.69742 12.0006 5.51395C12.0006 4.33048 11.0412 3.37109 9.8577 3.37109C8.67423 3.37109 7.71484 4.33048 7.71484 5.51395C7.71484 6.69742 8.67423 7.65681 9.8577 7.65681Z" stroke="#DEE1E6" stroke-width="2.05714" stroke-miterlimit="10" stroke-linecap="square"/>
<path d="M13.266 16.2284H18.0008C20.4154 16.2284 20.5723 17.9427 20.5723 17.9427L10.488 21.8212C9.81341 22.0809 9.06084 22.0441 8.41455 21.7209L2.57227 18.7998L2.57227 12.7998H3.42941C4.37655 12.7998 6.77741 13.1752 7.71512 14.5141H10.2866C12.18 14.5141 13.7151 16.0492 13.7151 17.9427L7.71512 17.9427" stroke="#DEE1E6" stroke-width="2.05714" stroke-miterlimit="10"/>
</svg>
