<svg width="25" height="25" viewBox="0 0 25 25" fill="none" xmlns="http://www.w3.org/2000/svg">
<path d="M17.0882 12.2171C18.2716 12.2171 19.231 11.2577 19.231 10.0743C19.231 8.89079 18.2716 7.9314 17.0882 7.9314C15.9047 7.9314 14.9453 8.89079 14.9453 10.0743C14.9453 11.2577 15.9047 12.2171 17.0882 12.2171Z" stroke="#BD9A31" stroke-width="2.05714" stroke-miterlimit="10" stroke-linecap="square"/>
<path d="M10.2327 7.07429C11.4162 7.07429 12.3756 6.1149 12.3756 4.93143C12.3756 3.74796 11.4162 2.78857 10.2327 2.78857C9.04923 2.78857 8.08984 3.74796 8.08984 4.93143C8.08984 6.1149 9.04923 7.07429 10.2327 7.07429Z" stroke="#BD9A31" stroke-width="2.05714" stroke-miterlimit="10" stroke-linecap="square"/>
<path d="M13.639 15.6456H18.3739C20.7885 15.6456 20.9453 17.3599 20.9453 17.3599L10.861 21.2385C10.1865 21.4982 9.43388 21.4613 8.7876 21.1382L2.94531 18.217L2.94531 12.217H3.80246C4.7496 12.217 7.15046 12.5925 8.08817 13.9313H10.6596C12.553 13.9313 14.0882 15.4665 14.0882 17.3599L8.08817 17.3599" stroke="#BD9A31" stroke-width="2.05714" stroke-miterlimit="10"/>
</svg>
