<svg width="140" height="100" viewBox="0 0 140 100" fill="none" xmlns="http://www.w3.org/2000/svg">
<g clip-path="url(#clip0_139_1515)">
<mask id="mask0_139_1515" style="mask-type:luminance" maskUnits="userSpaceOnUse" x="-1" y="-1" width="142" height="101">
<path d="M140.483 -0.203003H-0.109375V99.7606H140.483V-0.203003Z" fill="white"/>
</mask>
<g mask="url(#mask0_139_1515)">
<path d="M112.989 25.2928C105.302 25.2928 98.3426 28.474 93.3413 33.5692C88.34 28.474 81.3937 25.2928 73.6932 25.2928C58.5305 25.2928 46.1992 37.6084 46.1992 52.7356V91.9397C46.1992 96.2693 49.7187 99.7804 54.0584 99.7804C58.3982 99.7804 61.9176 96.2693 61.9176 91.9397V52.7356C61.9176 46.2544 67.21 40.9744 73.7065 40.9744C80.2029 40.9744 85.4953 46.2544 85.4953 52.7356V72.3376C85.4953 76.6672 89.0147 80.1785 93.3545 80.1785C97.6943 80.1785 101.214 76.6672 101.214 72.3376V52.7356C101.214 46.2544 106.506 40.9744 113.003 40.9744C119.499 40.9744 124.791 46.2544 124.791 52.7356V91.9397C124.791 96.2693 128.311 99.7804 132.651 99.7804C136.99 99.7804 140.51 96.2693 140.51 91.9397V52.7356C140.51 37.6084 128.178 25.2928 113.003 25.2928H112.989Z" fill="#6D31ED"/>
</g>
<mask id="mask1_139_1515" style="mask-type:luminance" maskUnits="userSpaceOnUse" x="-1" y="-1" width="142" height="101">
<path d="M140.559 -0.0889893H-0.0332031V99.8746H140.559V-0.0889893Z" fill="white"/>
</mask>
<g mask="url(#mask1_139_1515)">
<path d="M41.2765 41.1412C39.9799 39.8476 38.2201 39.1216 36.381 39.1216H20.3186C9.46912 39.1216 0.141262 30.6604 -0.0307417 19.8364C-0.202744 8.86719 8.66202 -0.0692139 19.6173 -0.0692139H39.1992C50.0751 -0.0692139 58.9002 8.73519 58.9002 19.5856V45.3784C58.9002 50.302 52.933 52.7704 49.44 49.2856L41.2897 41.1544L41.2765 41.1412Z" fill="#15ABFF" fill-opacity="0.8"/>
</g>
</g>
<defs>
<clipPath id="clip0_139_1515">
<rect width="140" height="100" fill="white"/>
</clipPath>
</defs>
</svg>
