<svg width="140" height="100" viewBox="0 0 140 100" fill="none" xmlns="http://www.w3.org/2000/svg">
<g clip-path="url(#clip0_139_851)">
<mask id="mask0_139_851" style="mask-type:luminance" maskUnits="userSpaceOnUse" x="-1" y="-1" width="142" height="101">
<path d="M140.483 -0.203125H-0.109375V99.7605H140.483V-0.203125Z" fill="white"/>
</mask>
<g mask="url(#mask0_139_851)">
<path d="M112.989 25.2927C105.302 25.2927 98.3426 28.4739 93.3413 33.5691C88.34 28.4739 81.3937 25.2927 73.6932 25.2927C58.5305 25.2927 46.1992 37.6083 46.1992 52.7355V91.9395C46.1992 96.2691 49.7187 99.7803 54.0584 99.7803C58.3982 99.7803 61.9176 96.2691 61.9176 91.9395V52.7355C61.9176 46.2543 67.21 40.9743 73.7065 40.9743C80.2029 40.9743 85.4953 46.2543 85.4953 52.7355V72.3375C85.4953 76.6671 89.0147 80.1783 93.3545 80.1783C97.6943 80.1783 101.214 76.6671 101.214 72.3375V52.7355C101.214 46.2543 106.506 40.9743 113.003 40.9743C119.499 40.9743 124.791 46.2543 124.791 52.7355V91.9395C124.791 96.2691 128.311 99.7803 132.651 99.7803C136.99 99.7803 140.51 96.2691 140.51 91.9395V52.7355C140.51 37.6083 128.178 25.2927 113.003 25.2927H112.989Z" fill="#6D31ED"/>
</g>
<mask id="mask1_139_851" style="mask-type:luminance" maskUnits="userSpaceOnUse" x="-1" y="-1" width="142" height="101">
<path d="M140.559 -0.0891113H-0.0332031V99.8745H140.559V-0.0891113Z" fill="white"/>
</mask>
<g mask="url(#mask1_139_851)">
<path d="M41.2765 41.1411C39.9799 39.8475 38.2201 39.1215 36.381 39.1215H20.3186C9.46912 39.1215 0.141262 30.6603 -0.0307417 19.8363C-0.202744 8.86707 8.66202 -0.0693359 19.6173 -0.0693359H39.1992C50.0751 -0.0693359 58.9002 8.73506 58.9002 19.5855V45.3783C58.9002 50.3019 52.933 52.7703 49.44 49.2855L41.2897 41.1543L41.2765 41.1411Z" fill="#15ABFF" fill-opacity="0.8"/>
</g>
</g>
<defs>
<clipPath id="clip0_139_851">
<rect width="140" height="100" fill="white"/>
</clipPath>
</defs>
</svg>
