<svg width="71" height="51" viewBox="0 0 71 51" fill="none" xmlns="http://www.w3.org/2000/svg">
<g clip-path="url(#clip0_139_1788)">
<mask id="mask0_139_1788" style="mask-type:luminance" maskUnits="userSpaceOnUse" x="0" y="0" width="70" height="51">
<path d="M69.7389 0.326355H0.669922V50.3082H69.7389V0.326355Z" fill="white"/>
</mask>
<g mask="url(#mask0_139_1788)">
<path d="M56.2319 13.0743C52.4554 13.0743 49.0364 14.6649 46.5794 17.2125C44.1224 14.6649 40.7099 13.0743 36.9269 13.0743C29.4779 13.0743 23.4199 19.2321 23.4199 26.7957V46.3977C23.4199 48.5625 25.1489 50.3181 27.2809 50.3181C29.4129 50.3181 31.1419 48.5625 31.1419 46.3977V26.7957C31.1419 23.5551 33.7419 20.9151 36.9334 20.9151C40.1249 20.9151 42.7249 23.5551 42.7249 26.7957V36.5967C42.7249 38.7615 44.4539 40.5171 46.5859 40.5171C48.7179 40.5171 50.4469 38.7615 50.4469 36.5967V26.7957C50.4469 23.5551 53.0469 20.9151 56.2384 20.9151C59.4299 20.9151 62.0299 23.5551 62.0299 26.7957V46.3977C62.0299 48.5625 63.7589 50.3181 65.8909 50.3181C68.0229 50.3181 69.7519 48.5625 69.7519 46.3977V26.7957C69.7519 19.2321 63.6939 13.0743 56.2384 13.0743H56.2319Z" fill="#F3C63F"/>
</g>
<mask id="mask1_139_1788" style="mask-type:luminance" maskUnits="userSpaceOnUse" x="0" y="0" width="70" height="51">
<path d="M69.5397 0.378357H0.470703V50.3602H69.5397V0.378357Z" fill="white"/>
</mask>
<g mask="url(#mask1_139_1788)">
<path d="M20.7649 20.9934C20.1279 20.3466 19.2634 19.9836 18.3599 19.9836H10.4689C5.13891 19.9836 0.556413 15.753 0.471912 10.341C0.387413 4.85645 4.74241 0.388245 10.1244 0.388245H19.7444C25.0874 0.388245 29.4229 4.79044 29.4229 10.2156V23.112C29.4229 25.5738 26.4914 26.808 24.7754 25.0656L20.7714 21L20.7649 20.9934Z" fill="#171A1F"/>
</g>
</g>
<defs>
<clipPath id="clip0_139_1788">
<rect width="70" height="50" fill="white" transform="translate(0.376953 0.422852)"/>
</clipPath>
</defs>
</svg>
