<svg width="53" height="38" viewBox="0 0 53 38" fill="none" xmlns="http://www.w3.org/2000/svg">
<g clip-path="url(#clip0_69_2138)">
<mask id="mask0_69_2138" style="mask-type:luminance" maskUnits="userSpaceOnUse" x="0" y="0" width="53" height="38">
<path d="M52.1572 0.669922H0.0898438V37.7776H52.1572V0.669922Z" fill="white"/>
</mask>
<g mask="url(#mask0_69_2138)">
<path d="M41.9735 10.1343C39.1266 10.1343 36.5492 11.3152 34.697 13.2066C32.8448 11.3152 30.2723 10.1343 27.4205 10.1343C21.8051 10.1343 17.2383 14.706 17.2383 20.3214V34.8744C17.2383 36.4816 18.5417 37.785 20.1489 37.785C21.7561 37.785 23.0595 36.4816 23.0595 34.8744V20.3214C23.0595 17.9155 25.0195 15.9555 27.4254 15.9555C29.8313 15.9555 31.7913 17.9155 31.7913 20.3214V27.5979C31.7913 29.2051 33.0947 30.5085 34.7019 30.5085C36.3091 30.5085 37.6125 29.2051 37.6125 27.5979V20.3214C37.6125 17.9155 39.5725 15.9555 41.9784 15.9555C44.3843 15.9555 46.3443 17.9155 46.3443 20.3214V34.8744C46.3443 36.4816 47.6477 37.785 49.2549 37.785C50.8621 37.785 52.1655 36.4816 52.1655 34.8744V20.3214C52.1655 14.706 47.5987 10.1343 41.9784 10.1343H41.9735Z" fill="#6D31ED"/>
</g>
<mask id="mask1_69_2138" style="mask-type:luminance" maskUnits="userSpaceOnUse" x="0" y="0" width="53" height="38">
<path d="M52.3487 0.757812H0.28125V37.8655H52.3487V0.757812Z" fill="white"/>
</mask>
<g mask="url(#mask1_69_2138)">
<path d="M15.58 16.0629C15.0998 15.5827 14.4481 15.3132 13.767 15.3132H7.81838C3.80036 15.3132 0.345862 12.1723 0.282162 8.15433C0.218462 4.08244 3.50146 0.765137 7.55868 0.765137H14.8107C18.8385 0.765137 22.1068 4.03344 22.1068 8.06123V17.6358C22.1068 19.4635 19.8969 20.3798 18.6033 19.0862L15.5849 16.0678L15.58 16.0629Z" fill="#15ABFF" fill-opacity="0.8"/>
</g>
</g>
<defs>
<clipPath id="clip0_69_2138">
<rect width="52" height="37" fill="white" transform="translate(0.375 0.817139)"/>
</clipPath>
</defs>
</svg>
