<svg width="141" height="101" viewBox="0 0 141 101" fill="none" xmlns="http://www.w3.org/2000/svg">
<g clip-path="url(#clip0_17_446)">
<mask id="mask0_17_446" style="mask-type:luminance" maskUnits="userSpaceOnUse" x="0" y="0" width="141" height="101">
<path d="M140.86 0.219727H0.267578V100.183H140.86V0.219727Z" fill="white"/>
</mask>
<g mask="url(#mask0_17_446)">
<path d="M113.366 25.7156C105.679 25.7156 98.7195 28.8968 93.7182 33.992C88.7169 28.8968 81.7706 25.7156 74.0702 25.7156C58.9075 25.7156 46.5762 38.0312 46.5762 53.1584V92.3624C46.5762 96.692 50.0956 100.203 54.4354 100.203C58.7752 100.203 62.2946 96.692 62.2946 92.3624V53.1584C62.2946 46.6772 67.587 41.3972 74.0834 41.3972C80.5798 41.3972 85.8722 46.6772 85.8722 53.1584V72.7604C85.8722 77.09 89.3917 80.6012 93.7315 80.6012C98.0712 80.6012 101.591 77.09 101.591 72.7604V53.1584C101.591 46.6772 106.883 41.3972 113.379 41.3972C119.876 41.3972 125.168 46.6772 125.168 53.1584V92.3624C125.168 96.692 128.688 100.203 133.028 100.203C137.367 100.203 140.887 96.692 140.887 92.3624V53.1584C140.887 38.0312 128.555 25.7156 113.379 25.7156H113.366Z" fill="#6D31ED"/>
</g>
<mask id="mask1_17_446" style="mask-type:luminance" maskUnits="userSpaceOnUse" x="0" y="0" width="141" height="101">
<path d="M140.936 0.33374H0.34375V100.297H140.936V0.33374Z" fill="white"/>
</mask>
<g mask="url(#mask1_17_446)">
<path d="M41.6534 41.5639C40.3568 40.2703 38.5971 39.5443 36.758 39.5443H20.6955C9.84607 39.5443 0.518215 31.0831 0.346211 20.2591C0.174209 9.28992 9.03898 0.353516 19.9943 0.353516H39.5762C50.4521 0.353516 59.2771 9.15792 59.2771 20.0083V45.8011C59.2771 50.7247 53.31 53.1931 49.817 49.7083L41.6667 41.5771L41.6534 41.5639Z" fill="#15ABFF" fill-opacity="0.8"/>
</g>
</g>
<defs>
<clipPath id="clip0_17_446">
<rect width="140" height="100" fill="white" transform="translate(0.376953 0.422852)"/>
</clipPath>
</defs>
</svg>
