<svg width="71" height="51" viewBox="0 0 71 51" fill="none" xmlns="http://www.w3.org/2000/svg">
<g clip-path="url(#clip0_139_187)">
<mask id="mask0_139_187" style="mask-type:luminance" maskUnits="userSpaceOnUse" x="0" y="0" width="70" height="51">
<path d="M69.7389 0.326355H0.669922V50.3082H69.7389V0.326355Z" fill="white"/>
</mask>
<g mask="url(#mask0_139_187)">
<path d="M56.2319 13.0742C52.4554 13.0742 49.0364 14.6648 46.5794 17.2124C44.1224 14.6648 40.7099 13.0742 36.9269 13.0742C29.4779 13.0742 23.4199 19.232 23.4199 26.7956V46.3977C23.4199 48.5625 25.1489 50.3181 27.2809 50.3181C29.4129 50.3181 31.1419 48.5625 31.1419 46.3977V26.7956C31.1419 23.555 33.7419 20.9151 36.9334 20.9151C40.1249 20.9151 42.7249 23.555 42.7249 26.7956V36.5966C42.7249 38.7614 44.4539 40.5171 46.5859 40.5171C48.7179 40.5171 50.4469 38.7614 50.4469 36.5966V26.7956C50.4469 23.555 53.0469 20.9151 56.2384 20.9151C59.4299 20.9151 62.0299 23.555 62.0299 26.7956V46.3977C62.0299 48.5625 63.7589 50.3181 65.8909 50.3181C68.0229 50.3181 69.7519 48.5625 69.7519 46.3977V26.7956C69.7519 19.232 63.6939 13.0742 56.2384 13.0742H56.2319Z" fill="#F3C63F"/>
</g>
<mask id="mask1_139_187" style="mask-type:luminance" maskUnits="userSpaceOnUse" x="0" y="0" width="70" height="51">
<path d="M69.5397 0.378357H0.470703V50.3602H69.5397V0.378357Z" fill="white"/>
</mask>
<g mask="url(#mask1_139_187)">
<path d="M20.7649 20.9935C20.1279 20.3467 19.2634 19.9837 18.3599 19.9837H10.4689C5.13891 19.9837 0.556413 15.7531 0.471912 10.3411C0.387413 4.85648 4.74241 0.388275 10.1244 0.388275H19.7444C25.0874 0.388275 29.4229 4.79048 29.4229 10.2157V23.1121C29.4229 25.5739 26.4914 26.8081 24.7754 25.0657L20.7714 21.0001L20.7649 20.9935Z" fill="#171A1F"/>
</g>
</g>
<defs>
<clipPath id="clip0_139_187">
<rect width="70" height="50" fill="white" transform="translate(0.376953 0.422852)"/>
</clipPath>
</defs>
</svg>
