<svg width="12" height="12" viewBox="0 0 12 12" fill="none" xmlns="http://www.w3.org/2000/svg">
<path d="M10.499 6.00002C10.499 6.09948 10.4595 6.19486 10.3892 6.26519C10.3189 6.33552 10.2235 6.37502 10.124 6.37502L4.87404 6.37502C4.77459 6.37502 4.67921 6.33552 4.60888 6.26519C4.53855 6.19486 4.49904 6.09948 4.49904 6.00002C4.49904 5.90057 4.53855 5.80519 4.60888 5.73486C4.67921 5.66453 4.77459 5.62502 4.87404 5.62502L10.124 5.62502C10.2235 5.62502 10.3189 5.66453 10.3892 5.73486C10.4595 5.80519 10.499 5.90057 10.499 6.00002ZM4.87404 3.37502L10.124 3.37502C10.2235 3.37502 10.3189 3.33552 10.3892 3.26519C10.4595 3.19486 10.499 3.09948 10.499 3.00002C10.499 2.90057 10.4595 2.80519 10.3892 2.73486C10.3189 2.66453 10.2235 2.62502 10.124 2.62502L4.87404 2.62502C4.77459 2.62502 4.67921 2.66453 4.60888 2.73486C4.53855 2.80519 4.49904 2.90057 4.49904 3.00002C4.49904 3.09948 4.53855 3.19486 4.60888 3.26519C4.67921 3.33552 4.77459 3.37502 4.87404 3.37502ZM10.124 8.62502L4.87404 8.62502C4.77459 8.62502 4.67921 8.66453 4.60888 8.73486C4.53855 8.80519 4.49904 8.90057 4.49904 9.00002C4.49904 9.09948 4.53855 9.19486 4.60888 9.26519C4.67921 9.33552 4.77459 9.37502 4.87404 9.37502L10.124 9.37502C10.2235 9.37502 10.3189 9.33552 10.3892 9.26519C10.4595 9.19486 10.499 9.09948 10.499 9.00002C10.499 8.90057 10.4595 8.80519 10.3892 8.73486C10.3189 8.66453 10.2235 8.62502 10.124 8.62502ZM2.04186 2.58565L2.24904 2.48159L2.24904 4.87502C2.24904 4.97448 2.28855 5.06986 2.35888 5.14019C2.42921 5.21052 2.52459 5.25002 2.62404 5.25002C2.7235 5.25002 2.81888 5.21052 2.88921 5.14019C2.95954 5.06986 2.99904 4.97448 2.99904 4.87502L2.99904 1.87502C2.99909 1.81107 2.98278 1.74817 2.95166 1.69229C2.92054 1.63642 2.87565 1.58943 2.82126 1.5558C2.76686 1.52217 2.70477 1.503 2.64088 1.50013C2.57699 1.49726 2.51342 1.51078 2.45623 1.5394L1.70623 1.9144C1.61722 1.95891 1.54953 2.03695 1.51806 2.13136C1.50248 2.17811 1.49625 2.22747 1.49975 2.27662C1.50324 2.32578 1.51638 2.37376 1.53842 2.41784C1.56046 2.46191 1.59096 2.50121 1.62819 2.5335C1.66541 2.56579 1.70863 2.59043 1.75538 2.60601C1.8498 2.63748 1.95284 2.63016 2.04186 2.58565ZM3.73826 7.34627C3.71753 7.19775 3.66697 7.05496 3.58964 6.92648C3.51231 6.79799 3.4098 6.68647 3.28826 6.59862C3.04484 6.42186 2.7425 6.34609 2.44449 6.38715C2.14649 6.42821 1.8759 6.58293 1.68936 6.81893C1.61806 6.91048 1.56159 7.01266 1.52201 7.12174C1.50135 7.16869 1.49053 7.21938 1.49024 7.27068C1.48995 7.32197 1.50018 7.37278 1.52031 7.41997C1.54044 7.46715 1.57003 7.5097 1.60726 7.54499C1.64449 7.58028 1.68857 7.60755 1.73676 7.62513C1.78495 7.6427 1.83624 7.6502 1.88744 7.64716C1.93865 7.64412 1.98869 7.63061 2.03447 7.60746C2.08024 7.58431 2.12078 7.55202 2.15358 7.51258C2.18637 7.47313 2.21073 7.42738 2.22514 7.37815C2.23826 7.34219 2.25693 7.3085 2.28045 7.27831C2.3466 7.19588 2.44199 7.14214 2.54676 7.12826C2.65153 7.11437 2.75762 7.14142 2.84295 7.20377C2.884 7.23281 2.91871 7.26989 2.94498 7.31276C2.97125 7.35563 2.98853 7.40339 2.99576 7.45315C3.00238 7.50094 2.99927 7.54957 2.98662 7.59613C2.97398 7.64269 2.95205 7.68621 2.92217 7.72409C2.9208 7.72572 2.91955 7.72744 2.91842 7.72924L1.57358 9.52549C1.5319 9.58124 1.50656 9.64749 1.5004 9.71681C1.49424 9.78614 1.50749 9.85582 1.53867 9.91804C1.56986 9.98027 1.61775 10.0326 1.67698 10.0691C1.73621 10.1057 1.80444 10.125 1.87404 10.125L3.37404 10.125C3.4735 10.125 3.56888 10.0855 3.63921 10.0152C3.70954 9.94486 3.74904 9.84948 3.74904 9.75002C3.74904 9.65057 3.70954 9.55519 3.63921 9.48486C3.56888 9.41453 3.4735 9.37502 3.37404 9.37502H2.62404L3.51842 8.17831C3.6091 8.06151 3.6753 7.92764 3.71307 7.78468C3.75084 7.64172 3.75941 7.49262 3.73826 7.34627Z" fill="#DEE1E6"/>
</svg>
