<svg width="17" height="17" viewBox="0 0 17 17" fill="none" xmlns="http://www.w3.org/2000/svg">
<path d="M12.3777 14.4229L4.37773 14.4229C3.71533 14.4229 3.17773 13.8853 3.17773 13.2229L3.17773 9.22295C3.17773 8.56055 3.71533 8.02295 4.37773 8.02295L12.3777 8.02295C13.0401 8.02295 13.5777 8.56055 13.5777 9.22295L13.5777 13.2229C13.5777 13.8853 13.0401 14.4229 12.3777 14.4229Z" stroke="#171A1F" stroke-width="0.8" stroke-linecap="round" stroke-linejoin="round"/>
<path d="M5.57617 6.42285V5.22285C5.57617 3.67645 6.82977 2.42285 8.37617 2.42285C9.92257 2.42285 11.1762 3.67645 11.1762 5.22285V6.42285" stroke="#171A1F" stroke-width="0.8" stroke-linecap="round" stroke-linejoin="round"/>
<path d="M8.37773 12.4229C9.04048 12.4229 9.57773 11.8857 9.57773 11.2229C9.57773 10.5602 9.04048 10.0229 8.37773 10.0229C7.71499 10.0229 7.17773 10.5602 7.17773 11.2229C7.17773 11.8857 7.71499 12.4229 8.37773 12.4229Z" stroke="#171A1F" stroke-width="0.8" stroke-linecap="round" stroke-linejoin="round"/>
</svg>
