<svg width="17" height="17" viewBox="0 0 17 17" fill="none" xmlns="http://www.w3.org/2000/svg">
<path d="M8.37773 9.6229C9.04048 9.6229 9.57773 9.08564 9.57773 8.4229C9.57773 7.76016 9.04048 7.2229 8.37773 7.2229C7.71499 7.2229 7.17773 7.76016 7.17773 8.4229C7.17773 9.08564 7.71499 9.6229 8.37773 9.6229Z" stroke="#9095A1" stroke-width="0.8" stroke-miterlimit="10" stroke-linecap="round" stroke-linejoin="round"/>
<path d="M13.1766 9.6229C13.8393 9.6229 14.3766 9.08564 14.3766 8.4229C14.3766 7.76016 13.8393 7.2229 13.1766 7.2229C12.5138 7.2229 11.9766 7.76016 11.9766 8.4229C11.9766 9.08564 12.5138 9.6229 13.1766 9.6229Z" stroke="#9095A1" stroke-width="0.8" stroke-miterlimit="10" stroke-linecap="round" stroke-linejoin="round"/>
<path d="M3.57695 9.6229C4.23969 9.6229 4.77695 9.08564 4.77695 8.4229C4.77695 7.76016 4.23969 7.2229 3.57695 7.2229C2.91421 7.2229 2.37695 7.76016 2.37695 8.4229C2.37695 9.08564 2.91421 9.6229 3.57695 9.6229Z" stroke="#9095A1" stroke-width="0.8" stroke-miterlimit="10" stroke-linecap="round" stroke-linejoin="round"/>
</svg>
