<svg width="12" height="12" viewBox="0 0 12 12" fill="none" xmlns="http://www.w3.org/2000/svg">
<path d="M2.1423 6.42858C2.61569 6.42858 2.99944 6.04482 2.99944 5.57144C2.99944 5.09805 2.61569 4.71429 2.1423 4.71429C1.66891 4.71429 1.28516 5.09805 1.28516 5.57144C1.28516 6.04482 1.66891 6.42858 2.1423 6.42858Z" stroke="#DEE1E6" stroke-width="0.857143" stroke-linecap="round" stroke-linejoin="round"/>
<path d="M9.85714 6.42858C10.3305 6.42858 10.7143 6.04482 10.7143 5.57144C10.7143 5.09805 10.3305 4.71429 9.85714 4.71429C9.38376 4.71429 9 5.09805 9 5.57144C9 6.04482 9.38376 6.42858 9.85714 6.42858Z" stroke="#DEE1E6" stroke-width="0.857143" stroke-linecap="round" stroke-linejoin="round"/>
<path d="M5.99972 6.42858C6.47311 6.42858 6.85686 6.04482 6.85686 5.57144C6.85686 5.09805 6.47311 4.71429 5.99972 4.71429C5.52633 4.71429 5.14258 5.09805 5.14258 5.57144C5.14258 6.04482 5.52633 6.42858 5.99972 6.42858Z" stroke="#DEE1E6" stroke-width="0.857143" stroke-linecap="round" stroke-linejoin="round"/>
</svg>
