<svg width="81" height="17" viewBox="0 0 81 17" fill="none" xmlns="http://www.w3.org/2000/svg">
<path d="M7.86711 1.88977C8.05545 1.43697 8.69691 1.43697 8.88525 1.88978L10.4343 5.61417C10.5137 5.80507 10.6932 5.93549 10.8993 5.95202L14.9201 6.27436C15.409 6.31355 15.6072 6.92361 15.2347 7.24263L12.1713 9.86683C12.0143 10.0013 11.9457 10.2124 11.9937 10.4134L12.9296 14.337C13.0434 14.8141 12.5244 15.1911 12.106 14.9355L8.66358 12.8329C8.48718 12.7252 8.26525 12.7252 8.08885 12.8329L4.64645 14.9355C4.22793 15.1911 3.70899 14.8141 3.82277 14.337L4.7587 10.4134C4.80667 10.2124 4.7381 10.0013 4.58109 9.86683L1.51766 7.24263C1.14521 6.92361 1.34343 6.31355 1.83228 6.27436L5.85308 5.95202C6.05916 5.93549 6.23868 5.80507 6.31808 5.61417L7.86711 1.88977Z" fill="url(#paint0_linear_17_350)"/>
<path d="M23.8671 1.88977C24.0554 1.43697 24.6969 1.43697 24.8852 1.88978L26.4343 5.61417C26.5137 5.80507 26.6932 5.93549 26.8993 5.95202L30.9201 6.27436C31.409 6.31355 31.6072 6.92361 31.2347 7.24263L28.1713 9.86683C28.0143 10.0013 27.9457 10.2124 27.9937 10.4134L28.9296 14.337C29.0434 14.8141 28.5244 15.1911 28.106 14.9355L24.6636 12.8329C24.4872 12.7252 24.2652 12.7252 24.0888 12.8329L20.6464 14.9355C20.2279 15.1911 19.709 14.8141 19.8228 14.337L20.7587 10.4134C20.8067 10.2124 20.7381 10.0013 20.5811 9.86683L17.5177 7.24263C17.1452 6.92361 17.3434 6.31355 17.8323 6.27436L21.8531 5.95202C22.0592 5.93549 22.2387 5.80507 22.3181 5.61417L23.8671 1.88977Z" fill="url(#paint1_linear_17_350)"/>
<path d="M39.8671 1.88977C40.0554 1.43697 40.6969 1.43697 40.8852 1.88978L42.4343 5.61417C42.5137 5.80507 42.6932 5.93549 42.8993 5.95202L46.9201 6.27436C47.409 6.31355 47.6072 6.92361 47.2347 7.24263L44.1713 9.86683C44.0143 10.0013 43.9457 10.2124 43.9937 10.4134L44.9296 14.337C45.0434 14.8141 44.5244 15.1911 44.106 14.9355L40.6636 12.8329C40.4872 12.7252 40.2652 12.7252 40.0888 12.8329L36.6464 14.9355C36.2279 15.1911 35.709 14.8141 35.8228 14.337L36.7587 10.4134C36.8067 10.2124 36.7381 10.0013 36.5811 9.86683L33.5177 7.24263C33.1452 6.92361 33.3434 6.31355 33.8323 6.27436L37.8531 5.95202C38.0592 5.93549 38.2387 5.80507 38.3181 5.61417L39.8671 1.88977Z" fill="url(#paint2_linear_17_350)"/>
<path d="M55.8671 1.88977C56.0554 1.43697 56.6969 1.43697 56.8852 1.88978L58.4343 5.61417C58.5137 5.80507 58.6932 5.93549 58.8993 5.95202L62.9201 6.27436C63.409 6.31355 63.6072 6.92361 63.2347 7.24263L60.1713 9.86683C60.0143 10.0013 59.9457 10.2124 59.9937 10.4134L60.9296 14.337C61.0434 14.8141 60.5244 15.1911 60.106 14.9355L56.6636 12.8329C56.4872 12.7252 56.2652 12.7252 56.0888 12.8329L52.6464 14.9355C52.2279 15.1911 51.709 14.8141 51.8228 14.337L52.7587 10.4134C52.8067 10.2124 52.7381 10.0013 52.5811 9.86683L49.5177 7.24263C49.1452 6.92361 49.3434 6.31355 49.8323 6.27436L53.8531 5.95202C54.0592 5.93549 54.2387 5.80507 54.3181 5.61417L55.8671 1.88977Z" fill="url(#paint3_linear_17_350)"/>
<path d="M71.8671 1.88977C72.0554 1.43697 72.6969 1.43697 72.8852 1.88978L74.4343 5.61417C74.5137 5.80507 74.6932 5.93549 74.8993 5.95202L78.9201 6.27436C79.409 6.31355 79.6072 6.92361 79.2347 7.24263L76.1713 9.86683C76.0143 10.0013 75.9457 10.2124 75.9937 10.4134L76.9296 14.337C77.0434 14.8141 76.5244 15.1911 76.106 14.9355L72.6636 12.8329C72.4872 12.7252 72.2652 12.7252 72.0888 12.8329L68.6464 14.9355C68.2279 15.1911 67.709 14.8141 67.8228 14.337L68.7587 10.4134C68.8067 10.2124 68.7381 10.0013 68.5811 9.86683L65.5177 7.24263C65.1452 6.92361 65.3434 6.31355 65.8323 6.27436L69.8531 5.95202C70.0592 5.93549 70.2387 5.80507 70.3181 5.61417L71.8671 1.88977Z" fill="url(#paint4_linear_17_350)"/>
<defs>
<linearGradient id="paint0_linear_17_350" x1="1.32422" y1="1.55017" x2="15.4282" y2="1.55017" gradientUnits="userSpaceOnUse">
<stop offset="0.4999" stop-color="#F3C63F"/>
<stop offset="0.5" stop-color="#F3C63F"/>
</linearGradient>
<linearGradient id="paint1_linear_17_350" x1="17.3242" y1="1.55017" x2="31.4282" y2="1.55017" gradientUnits="userSpaceOnUse">
<stop offset="0.4999" stop-color="#F3C63F"/>
<stop offset="0.5" stop-color="#F3C63F"/>
</linearGradient>
<linearGradient id="paint2_linear_17_350" x1="33.3242" y1="1.55017" x2="47.4282" y2="1.55017" gradientUnits="userSpaceOnUse">
<stop offset="0.4999" stop-color="#F3C63F"/>
<stop offset="0.5" stop-color="#F3C63F"/>
</linearGradient>
<linearGradient id="paint3_linear_17_350" x1="49.3242" y1="1.55017" x2="63.4282" y2="1.55017" gradientUnits="userSpaceOnUse">
<stop offset="0.4999" stop-color="#F3C63F"/>
<stop offset="0.5" stop-color="#F3C63F"/>
</linearGradient>
<linearGradient id="paint4_linear_17_350" x1="65.3242" y1="1.55017" x2="79.4282" y2="1.55017" gradientUnits="userSpaceOnUse">
<stop offset="0.4999" stop-color="#F3C63F"/>
<stop offset="0.5" stop-color="#F3C63F"/>
</linearGradient>
</defs>
</svg>
