<svg width="12" height="12" viewBox="0 0 12 12" fill="none" xmlns="http://www.w3.org/2000/svg">
<g clip-path="url(#clip0_105_1962)">
<path d="M9.9483 8.57827C9.36009 9.47877 8.48164 10.1511 7.45874 10.4836C6.43584 10.8161 5.32999 10.7888 4.32473 10.4062C3.31947 10.0237 2.47524 9.30889 1.93217 8.38047C1.38909 7.45206 1.17982 6.36585 1.33909 5.30212C1.49835 4.23839 2.01658 3.2611 2.80776 2.53245C3.59893 1.80381 4.61549 1.36762 5.68871 1.29628C6.76193 1.22493 7.82727 1.52273 8.70794 2.14024C9.5886 2.75774 10.2316 3.65783 10.5303 4.69112" stroke="#DEE1E6" stroke-width="0.857143" stroke-linecap="round" stroke-linejoin="round"/>
<path d="M10.7145 1.28571L10.7145 4.71428L7.3125 4.29171" stroke="#DEE1E6" stroke-width="0.857143" stroke-linecap="round" stroke-linejoin="round"/>
</g>
<defs>
<clipPath id="clip0_105_1962">
<rect width="12" height="12" fill="white"/>
</clipPath>
</defs>
</svg>
