<svg width="12" height="12" viewBox="0 0 12 12" fill="none" xmlns="http://www.w3.org/2000/svg">
<g clip-path="url(#clip0_105_1896)">
<path d="M9.99997 0.666734L0.666667 10C0.298477 10.3682 0.298477 10.9652 0.666667 11.3334L0.666668 11.3334C1.03486 11.7016 1.63181 11.7016 2 11.3334L11.3333 2.00007C11.7015 1.63188 11.7015 1.03493 11.3333 0.666734C10.9651 0.298544 10.3682 0.298544 9.99997 0.666734Z" fill="#BDC1CA"/>
<path d="M10.0006 6.00004L6.00065 10C5.63246 10.3682 5.63246 10.9652 6.00065 11.3334L6.00065 11.3334C6.36884 11.7016 6.9658 11.7016 7.33398 11.3334L11.334 7.33337C11.7022 6.96518 11.7022 6.36823 11.334 6.00004C10.9658 5.63185 10.3688 5.63185 10.0006 6.00004Z" fill="#BDC1CA"/>
</g>
<defs>
<clipPath id="clip0_105_1896">
<rect width="12" height="12" fill="white"/>
</clipPath>
</defs>
</svg>
