<svg width="12" height="12" viewBox="0 0 12 12" fill="none" xmlns="http://www.w3.org/2000/svg">
<g clip-path="url(#clip0_17_498)">
<path d="M9.99997 0.66678L0.666667 10.0001C0.298477 10.3683 0.298477 10.9652 0.666667 11.3334L0.666668 11.3334C1.03486 11.7016 1.63181 11.7016 2 11.3334L11.3333 2.00011C11.7015 1.63192 11.7015 1.03497 11.3333 0.66678C10.9651 0.29859 10.3682 0.29859 9.99997 0.66678Z" fill="#9095A1"/>
<path d="M10.0006 6.00008L6.00065 10.0001C5.63246 10.3683 5.63246 10.9652 6.00065 11.3334L6.00065 11.3334C6.36884 11.7016 6.9658 11.7016 7.33398 11.3334L11.334 7.33342C11.7022 6.96523 11.7022 6.36827 11.334 6.00008C10.9658 5.63189 10.3688 5.63189 10.0006 6.00008Z" fill="#9095A1"/>
</g>
<defs>
<clipPath id="clip0_17_498">
<rect width="12" height="12" fill="white"/>
</clipPath>
</defs>
</svg>
