<svg width="24" height="25" viewBox="0 0 24 25" fill="none" xmlns="http://www.w3.org/2000/svg">
<path d="M11.9992 15.1717C13.4193 15.1717 14.5706 14.0204 14.5706 12.6002C14.5706 11.1801 13.4193 10.0288 11.9992 10.0288C10.579 10.0288 9.42773 11.1801 9.42773 12.6002C9.42773 14.0204 10.579 15.1717 11.9992 15.1717Z" stroke="#DEE1E6" stroke-width="2.05714" stroke-miterlimit="10" stroke-linecap="square"/>
<path d="M18.8579 12.6C18.8569 12.1062 18.8029 11.6139 18.6968 11.1317L21.0231 9.37024L19.3088 6.4011L16.6148 7.53767C15.8853 6.86884 15.0194 6.36615 14.0768 6.06424L13.7151 3.17139L10.2865 3.17139L9.9248 6.06424C8.98224 6.36615 8.11635 6.86884 7.3868 7.53767L4.6928 6.4011L2.97852 9.37024L5.3048 11.1317C5.09 12.0987 5.09 13.1012 5.3048 14.0682L2.97852 15.8297L4.6928 18.7988L7.3868 17.6622C8.11635 18.3311 8.98224 18.8338 9.9248 19.1357L10.2865 22.0285H13.7151L14.0768 19.1357C15.0194 18.8338 15.8853 18.3311 16.6148 17.6622L19.3088 18.7988L21.0231 15.8297L18.6968 14.0682C18.8029 13.586 18.8569 13.0937 18.8579 12.6Z" stroke="#DEE1E6" stroke-width="2.05714" stroke-miterlimit="10" stroke-linecap="square"/>
</svg>
