<svg width="24" height="24" viewBox="0 0 24 24" fill="none" xmlns="http://www.w3.org/2000/svg">
<path d="M11.9992 14.5714C13.4193 14.5714 14.5706 13.4202 14.5706 12C14.5706 10.5799 13.4193 9.42859 11.9992 9.42859C10.579 9.42859 9.42773 10.5799 9.42773 12C9.42773 13.4202 10.579 14.5714 11.9992 14.5714Z" stroke="white" stroke-width="2.05714" stroke-miterlimit="10" stroke-linecap="square"/>
<path d="M18.8579 12C18.8569 11.5062 18.8029 11.0139 18.6968 10.5317L21.0231 8.77027L19.3088 5.80113L16.6148 6.9377C15.8853 6.26887 15.0194 5.76618 14.0768 5.46427L13.7151 2.57141L10.2865 2.57141L9.9248 5.46427C8.98224 5.76618 8.11635 6.26887 7.3868 6.9377L4.6928 5.80113L2.97852 8.77027L5.3048 10.5317C5.09 11.4988 5.09 12.5012 5.3048 13.4683L2.97852 15.2297L4.6928 18.1988L7.3868 17.0623C8.11635 17.7311 8.98224 18.2338 9.9248 18.5357L10.2865 21.4286H13.7151L14.0768 18.5357C15.0194 18.2338 15.8853 17.7311 16.6148 17.0623L19.3088 18.1988L21.0231 15.2297L18.6968 13.4683C18.8029 12.986 18.8569 12.4938 18.8579 12Z" stroke="white" stroke-width="2.05714" stroke-miterlimit="10" stroke-linecap="square"/>
</svg>
