<svg width="12" height="12" viewBox="0 0 12 12" fill="none" xmlns="http://www.w3.org/2000/svg">
<path d="M9.375 10.5C9.375 10.5995 9.33549 10.6948 9.26517 10.7652C9.19484 10.8355 9.09946 10.875 9 10.875L3 10.875C2.90054 10.875 2.80516 10.8355 2.73484 10.7652C2.66451 10.6948 2.625 10.5995 2.625 10.5C2.625 10.4005 2.66451 10.3052 2.73484 10.2348C2.80516 10.1645 2.90054 10.125 3 10.125L9 10.125C9.09946 10.125 9.19484 10.1645 9.26517 10.2348C9.33549 10.3052 9.375 10.4005 9.375 10.5ZM6 9.375C6.79538 9.37413 7.55794 9.05778 8.12036 8.49536C8.68278 7.93294 8.99913 7.17038 9 6.375L9 2.625C9 2.52554 8.96049 2.43016 8.89017 2.35984C8.81984 2.28951 8.72446 2.25 8.625 2.25C8.52554 2.25 8.43016 2.28951 8.35983 2.35984C8.28951 2.43016 8.25 2.52554 8.25 2.625L8.25 6.375C8.25 6.97174 8.01295 7.54403 7.59099 7.96599C7.16903 8.38795 6.59674 8.625 6 8.625C5.40326 8.625 4.83097 8.38795 4.40901 7.96599C3.98705 7.54403 3.75 6.97174 3.75 6.375L3.75 2.625C3.75 2.52554 3.71049 2.43016 3.64016 2.35984C3.56984 2.28951 3.47446 2.25 3.375 2.25C3.27554 2.25 3.18016 2.28951 3.10984 2.35984C3.03951 2.43016 3 2.52554 3 2.625L3 6.375C3.00087 7.17038 3.31722 7.93294 3.87964 8.49536C4.44206 9.05778 5.20462 9.37413 6 9.375Z" fill="#DEE1E6"/>
</svg>
