<svg width="12" height="12" viewBox="0 0 12 12" fill="none" xmlns="http://www.w3.org/2000/svg">
<path d="M7.99168 5.42348C8.28839 5.13854 8.49306 4.77135 8.57938 4.36914C8.6657 3.96693 8.62971 3.54809 8.47606 3.1665C8.3224 2.78491 8.05809 2.45801 7.71714 2.22785C7.37618 1.99769 6.97417 1.8748 6.5628 1.87498L3.00002 1.87476C2.95078 1.87475 2.90199 1.88445 2.85649 1.9033C2.81099 1.92214 2.76965 1.94976 2.73483 1.98458C2.70001 2.01941 2.67238 2.06075 2.65354 2.10625C2.63469 2.15174 2.625 2.20051 2.625 2.24976L2.625 9.37476C2.625 9.47421 2.66451 9.56959 2.73483 9.63991C2.80515 9.71024 2.90052 9.74975 2.99998 9.74976L7.12527 9.74998C7.64533 9.74998 8.14932 9.56983 8.55154 9.24018C8.95375 8.91052 9.22936 8.45171 9.33147 7.94178C9.43359 7.43186 9.35591 6.9023 9.11165 6.44318C8.86739 5.98406 8.47163 5.62373 7.99168 5.42348ZM3.375 2.62478L6.56277 2.62498C6.91087 2.62498 7.24471 2.76327 7.49085 3.00941C7.73699 3.25555 7.87527 3.58939 7.87527 3.93748C7.87527 4.28558 7.73699 4.61942 7.49085 4.86556C7.24471 5.1117 6.91087 5.24998 6.56277 5.24998L3.375 5.24998L3.375 2.62478ZM7.1253 8.99998L3.375 8.99978L3.375 5.99998L7.12527 5.99998C7.5231 5.99998 7.90463 6.15801 8.18594 6.43932C8.46724 6.72062 8.62528 7.10215 8.62529 7.49997C8.62529 7.8978 8.46726 8.27933 8.18595 8.56064C7.90465 8.84194 7.52312 8.99998 7.1253 8.99998Z" fill="#DEE1E6"/>
</svg>
