<svg width="25" height="25" viewBox="0 0 25 25" fill="none" xmlns="http://www.w3.org/2000/svg">
<path d="M12.3756 12.8172C10.009 12.8172 8.08984 10.8981 8.08984 8.53153V7.67439C8.08984 5.30781 10.009 3.38867 12.3756 3.38867C14.7421 3.38867 16.6613 5.30781 16.6613 7.67439V8.53153C16.6613 10.8981 14.7421 12.8172 12.3756 12.8172Z" stroke="#DEE1E6" stroke-width="2.05714" stroke-miterlimit="10" stroke-linecap="square"/>
<path d="M20.9475 20.4525C20.9475 18.9096 19.9215 17.5527 18.4327 17.1473C16.8093 16.7042 14.5927 16.2456 12.3761 16.2456C10.1595 16.2456 7.94297 16.7042 6.31954 17.1473C4.83069 17.5527 3.80469 18.9096 3.80469 20.4525L3.80469 22.2456L20.9475 22.2456V20.4525Z" stroke="#DEE1E6" stroke-width="2.05714" stroke-miterlimit="10" stroke-linecap="square"/>
</svg>
