<svg width="36" height="36" viewBox="0 0 36 36" fill="none" xmlns="http://www.w3.org/2000/svg">
<rect width="36" height="36" rx="4" fill="#BD9A31"/>
<path d="M18 24C21.3137 24 24 21.3137 24 18C24 14.6863 21.3137 12 18 12C14.6863 12 12 14.6863 12 18C12 21.3137 14.6863 24 18 24Z" stroke="white" stroke-width="0.8" stroke-linecap="round" stroke-linejoin="round"/>
<path d="M17.9992 15.6C18.441 15.6 18.7992 15.2418 18.7992 14.8C18.7992 14.3582 18.441 14 17.9992 14C17.5574 14 17.1992 14.3582 17.1992 14.8C17.1992 15.2418 17.5574 15.6 17.9992 15.6Z" fill="white"/>
<path d="M18 21.6V17.2" stroke="white" stroke-width="0.8" stroke-linecap="round" stroke-linejoin="round"/>
</svg>
