<svg width="25" height="25" viewBox="0 0 25 25" fill="none" xmlns="http://www.w3.org/2000/svg">
<path d="M12.377 2.42285C9.61995 2.42285 7.37695 4.66585 7.37695 7.42285V10.4229H6.37695C5.27295 10.4229 4.37695 11.3189 4.37695 12.4229L4.37695 20.4229C4.37695 21.5269 5.27295 22.4229 6.37695 22.4229H8.37695H11.377L13.377 22.4229H15.377H18.377C19.481 22.4229 20.377 21.5269 20.377 20.4229L20.377 12.4229C20.377 11.3189 19.481 10.4229 18.377 10.4229H17.377V7.42285C17.377 4.66585 15.134 2.42285 12.377 2.42285ZM9.37695 7.42285C9.37695 5.76885 10.723 4.42285 12.377 4.42285C14.031 4.42285 15.377 5.76885 15.377 7.42285V10.4229L9.37695 10.4229L9.37695 7.42285ZM13.377 18.1459V20.4229L11.377 20.4229V18.1459C10.65 17.7239 10.208 16.8679 10.438 15.9219C10.614 15.2019 11.218 14.6199 11.944 14.4689C13.238 14.1969 14.377 15.1759 14.377 16.4229C14.377 17.1619 13.973 17.7999 13.377 18.1459Z" fill="#BDC1CA"/>
</svg>
